<mxfile host="app.diagrams.net" modified="2022-12-25T11:48:34.243Z" agent="5.0 (Windows NT 10.0; Win64; x64) AppleWebKit/537.36 (KHTML, like Gecko) Chrome/108.0.0.0 Safari/537.36" version="20.7.4" etag="gj3j3Y9MYyq8eGhxMzd6" type="github">
  <diagram id="bjibo6VR64jtX2Tdw5Tf" name="Page-1">
    <mxGraphModel dx="880" dy="452" grid="1" gridSize="10" guides="1" tooltips="1" connect="1" arrows="1" fold="1" page="1" pageScale="1" pageWidth="850" pageHeight="1100" math="0" shadow="0">
      <root>
        <mxCell id="0" />
        <mxCell id="1" parent="0" />
        <mxCell id="XECg0LQd9_hMWSBXcWSe-3" value="" style="edgeStyle=orthogonalEdgeStyle;rounded=0;orthogonalLoop=1;jettySize=auto;html=1;" edge="1" parent="1" source="XECg0LQd9_hMWSBXcWSe-1" target="XECg0LQd9_hMWSBXcWSe-2">
          <mxGeometry relative="1" as="geometry" />
        </mxCell>
        <mxCell id="XECg0LQd9_hMWSBXcWSe-1" value="Start" style="ellipse;whiteSpace=wrap;html=1;" vertex="1" parent="1">
          <mxGeometry x="380" width="120" height="80" as="geometry" />
        </mxCell>
        <mxCell id="XECg0LQd9_hMWSBXcWSe-5" value="" style="edgeStyle=orthogonalEdgeStyle;rounded=0;orthogonalLoop=1;jettySize=auto;html=1;" edge="1" parent="1" source="XECg0LQd9_hMWSBXcWSe-2" target="XECg0LQd9_hMWSBXcWSe-4">
          <mxGeometry relative="1" as="geometry" />
        </mxCell>
        <mxCell id="XECg0LQd9_hMWSBXcWSe-2" value="a,b" style="shape=parallelogram;perimeter=parallelogramPerimeter;whiteSpace=wrap;html=1;fixedSize=1;" vertex="1" parent="1">
          <mxGeometry x="380" y="130" width="120" height="60" as="geometry" />
        </mxCell>
        <mxCell id="XECg0LQd9_hMWSBXcWSe-7" value="" style="edgeStyle=orthogonalEdgeStyle;rounded=0;orthogonalLoop=1;jettySize=auto;html=1;" edge="1" parent="1" source="XECg0LQd9_hMWSBXcWSe-4" target="XECg0LQd9_hMWSBXcWSe-6">
          <mxGeometry relative="1" as="geometry" />
        </mxCell>
        <mxCell id="XECg0LQd9_hMWSBXcWSe-10" value="" style="edgeStyle=orthogonalEdgeStyle;rounded=0;orthogonalLoop=1;jettySize=auto;html=1;" edge="1" parent="1" source="XECg0LQd9_hMWSBXcWSe-4" target="XECg0LQd9_hMWSBXcWSe-9">
          <mxGeometry relative="1" as="geometry" />
        </mxCell>
        <mxCell id="XECg0LQd9_hMWSBXcWSe-4" value="a&amp;gt;b" style="rhombus;whiteSpace=wrap;html=1;" vertex="1" parent="1">
          <mxGeometry x="400" y="260" width="80" height="80" as="geometry" />
        </mxCell>
        <mxCell id="XECg0LQd9_hMWSBXcWSe-18" style="edgeStyle=orthogonalEdgeStyle;rounded=0;orthogonalLoop=1;jettySize=auto;html=1;entryX=1;entryY=0.625;entryDx=0;entryDy=0;entryPerimeter=0;" edge="1" parent="1" source="XECg0LQd9_hMWSBXcWSe-6" target="XECg0LQd9_hMWSBXcWSe-12">
          <mxGeometry relative="1" as="geometry">
            <Array as="points">
              <mxPoint x="570" y="480" />
              <mxPoint x="510" y="480" />
            </Array>
          </mxGeometry>
        </mxCell>
        <mxCell id="XECg0LQd9_hMWSBXcWSe-6" value="a" style="shape=document;whiteSpace=wrap;html=1;boundedLbl=1;" vertex="1" parent="1">
          <mxGeometry x="540" y="260" width="120" height="80" as="geometry" />
        </mxCell>
        <mxCell id="XECg0LQd9_hMWSBXcWSe-8" value="Yes" style="text;html=1;align=center;verticalAlign=middle;resizable=0;points=[];autosize=1;strokeColor=none;fillColor=none;" vertex="1" parent="1">
          <mxGeometry x="485" y="260" width="40" height="30" as="geometry" />
        </mxCell>
        <mxCell id="XECg0LQd9_hMWSBXcWSe-9" value="b" style="shape=document;whiteSpace=wrap;html=1;boundedLbl=1;" vertex="1" parent="1">
          <mxGeometry x="220" y="260" width="120" height="80" as="geometry" />
        </mxCell>
        <mxCell id="XECg0LQd9_hMWSBXcWSe-11" value="No" style="text;html=1;align=center;verticalAlign=middle;resizable=0;points=[];autosize=1;strokeColor=none;fillColor=none;" vertex="1" parent="1">
          <mxGeometry x="350" y="265" width="40" height="30" as="geometry" />
        </mxCell>
        <mxCell id="XECg0LQd9_hMWSBXcWSe-12" value="End" style="ellipse;whiteSpace=wrap;html=1;" vertex="1" parent="1">
          <mxGeometry x="390" y="440" width="120" height="80" as="geometry" />
        </mxCell>
        <mxCell id="XECg0LQd9_hMWSBXcWSe-14" value="" style="endArrow=classic;html=1;rounded=0;" edge="1" parent="1">
          <mxGeometry x="-1" y="114" width="50" height="50" relative="1" as="geometry">
            <mxPoint x="280" y="330" as="sourcePoint" />
            <mxPoint x="280" y="480" as="targetPoint" />
            <mxPoint x="-9" y="11" as="offset" />
          </mxGeometry>
        </mxCell>
        <mxCell id="XECg0LQd9_hMWSBXcWSe-15" value="" style="endArrow=classic;html=1;rounded=0;" edge="1" parent="1">
          <mxGeometry width="50" height="50" relative="1" as="geometry">
            <mxPoint x="280" y="480" as="sourcePoint" />
            <mxPoint x="390" y="480" as="targetPoint" />
          </mxGeometry>
        </mxCell>
      </root>
    </mxGraphModel>
  </diagram>
</mxfile>
